<svg xmlns="http://www.w3.org/2000/svg" width="2em" height="2.5em" viewBox="0 0 250 355">
  <path d="M 111.798 10.931 C 103.745 13.505, 98.263 16.971, 92.346 23.227 C 86.647 29.254, 84.004 33.858, 81.610 41.932 C 79.853 47.860, 79.478 59.694, 80.892 64.623 L 81.784 67.734 74.394 70.981 C 50.994 81.265, 28.230 103.387, 16.235 127.500 C 2.366 155.379, -0.193 191.256, 9.598 220.545 C 14.412 234.945, 21.107 246.969, 31.715 260.267 L 37.114 267.034 31.978 276.854 C 25.381 289.469, 20.890 295.344, 13.618 300.871 C 4.468 307.826, 1.185 316.923, 4.072 327.321 C 5.428 332.202, 11.356 338.792, 16.500 341.134 C 21.427 343.378, 29.808 343.523, 34.782 341.451 C 43.817 337.687, 49.797 327.620, 48.592 318.201 C 46.574 302.423, 46.888 294.912, 50.076 282.801 L 51.050 279.102 57.275 283.432 C 70.704 292.773, 87.068 299.407, 104.307 302.498 C 118.504 305.044, 142.731 304.208, 156.074 300.713 C 169.071 297.308, 179.219 292.934, 190.245 285.985 L 199.500 280.152 200.762 284.326 C 203.257 292.576, 204.476 305.770, 203.189 310.583 C 199.491 324.411, 204.110 335.867, 215.500 341.114 C 224.763 345.380, 237.214 341.910, 243.044 333.436 C 250.698 322.312, 247.807 308.049, 236.359 300.450 C 230.641 296.655, 224.308 288.054, 217.524 274.870 L 213.598 267.241 218.228 262.092 C 227.131 252.189, 235.400 238.044, 240.359 224.234 C 242.767 217.528, 247 199.282, 247 195.607 C 247 194.207, 243.402 193.998, 215.286 193.764 L 183.573 193.500 179.730 181.500 C 167.284 142.637, 160.519 104.885, 162.914 87.667 C 163.476 83.620, 165.319 76.858, 167.007 72.641 C 172.424 59.112, 172.034 45.953, 165.852 33.706 C 155.964 14.118, 132.608 4.277, 111.798 10.931 M 79.673 90.549 C 63.185 98.956, 50.179 110.514, 40.510 125.351 C 23.935 150.785, 19.131 181.114, 27.081 210.133 C 29.574 219.236, 36.446 233.570, 42.050 241.358 L 46.265 247.217 48.184 242.785 L 50.102 238.353 46.407 232.926 C 41.432 225.621, 36.556 214.969, 33.804 205.395 C 30.601 194.250, 30.591 170.295, 33.786 158.721 C 38.071 143.195, 51.392 121, 56.425 121 C 58.656 121, 62 123.759, 62 125.600 C 62 126.119, 59.690 129.683, 56.868 133.521 C 50.374 142.352, 45.607 152.280, 42.957 162.500 C 40.088 173.562, 40.091 190.457, 42.963 201.500 C 45.096 209.699, 51.364 224.227, 53.552 226.043 C 54.478 226.812, 56.268 223.009, 60.922 210.390 C 71.880 180.673, 81.243 147.718, 85.468 124 C 87.387 113.225, 88.752 86.982, 87.390 87.034 C 86.900 87.053, 83.428 88.635, 79.673 90.549 M 120.573 117.007 C 103.408 140.325, 83.729 180.552, 67.506 225.485 L 62.818 238.470 66.659 241.783 C 85.149 257.730, 108.539 265.098, 130.904 262.019 C 138.760 260.938, 139.434 260.990, 141.258 262.814 C 143.604 265.160, 142.906 268.431, 139.682 270.199 C 136.581 271.901, 113.254 272.497, 105.698 271.068 C 91.129 268.312, 77.660 262.447, 66.491 253.993 C 62.791 251.193, 59.659 249.037, 59.531 249.201 C 59.005 249.873, 57 256.379, 57 257.412 C 57 258.819, 65.609 265.496, 73.670 270.340 C 108.480 291.258, 154.769 288.632, 187.460 263.883 C 195.203 258.022, 195.324 260.979, 186.279 235 C 182.736 224.825, 179.597 215.713, 179.302 214.750 C 178.810 213.140, 176.616 213, 151.883 213 L 125 213 125 203.518 L 125 194.037 147.938 193.768 L 170.875 193.500 162.626 175.393 C 150.964 149.796, 137.546 126.228, 127.151 113.084 L 125.241 110.668 120.573 117.007 M 245 147 C 245 147.550, 245.450 148, 246 148 C 246.550 148, 247 147.550, 247 147 C 247 146.450, 246.550 146, 246 146 C 245.450 146, 245 146.450, 245 147 M 191 213.830 C 191 214.570, 199.546 236.182, 203.273 244.867 L 204.718 248.234 210.405 239.685 C 215.568 231.927, 223 216.828, 223 214.100 C 223 213.346, 217.966 213, 207 213 C 198.200 213, 191 213.373, 191 213.830"
        fill="#F08A00" fill-rule="evenodd"/>
</svg>
